<svg xmlns="http://www.w3.org/2000/svg" xmlns:xlink="http://www.w3.org/1999/xlink" width="89.924" height="97" viewBox="0 0 89.924 97">
  <defs>
    <clipPath id="clip-path">
      <rect id="Rectangle_291" data-name="Rectangle 291" width="89.924" height="97" fill="#137ee8"/>
    </clipPath>
  </defs>
  <g id="Group_574" data-name="Group 574" transform="translate(0)">
    <g id="Group_573" data-name="Group 573" transform="translate(0)" clip-path="url(#clip-path)">
      <path id="Path_1337" data-name="Path 1337" d="M12.56,223.969q-5.119,0-10.238,0c-1.758,0-2.316-.559-2.317-2.308q-.005-6.685,0-13.37c0-1.6.591-2.2,2.216-2.2q10.29-.012,20.581,0c1.681,0,2.28.6,2.283,2.259q.009,6.685,0,13.37c0,1.657-.6,2.248-2.287,2.251q-5.119.009-10.238,0" transform="translate(-0.001 -148.539)" fill="#137ee8"/>
      <path id="Path_1338" data-name="Path 1338" d="M244.719,223.969q-5.119,0-10.238,0c-1.673,0-2.271-.6-2.273-2.264q-.008-6.685,0-13.37c0-1.617.6-2.242,2.19-2.245q10.343-.015,20.685,0c1.621,0,2.2.6,2.2,2.215q.008,6.737,0,13.475c0,1.6-.6,2.187-2.226,2.19-3.447.008-6.895,0-10.342,0" transform="translate(-167.367 -148.538)" fill="#137ee8"/>
      <path id="Path_1339" data-name="Path 1339" d="M12.581,128.814q5.119,0,10.238,0c1.668,0,2.264.6,2.266,2.271q.008,6.685,0,13.37c0,1.612-.59,2.226-2.2,2.228q-10.342.018-20.684,0c-1.63,0-2.193-.592-2.2-2.217Q0,137.784,0,131.1c0-1.729.568-2.282,2.339-2.283q5.119-.007,10.238,0" transform="translate(-0.001 -92.845)" fill="#137ee8"/>
      <path id="Path_1340" data-name="Path 1340" d="M128.649,146.691c-3.378,0-6.756.005-10.134,0-1.89,0-2.411-.536-2.412-2.432q0-6.581,0-13.161c0-1.68.586-2.278,2.249-2.28q10.29-.008,20.58,0c1.667,0,2.253.6,2.254,2.274q.006,6.685,0,13.37c0,1.616-.58,2.217-2.2,2.225-3.447.017-6.895.005-10.342.006" transform="translate(-83.684 -92.846)" fill="#137ee8"/>
      <path id="Path_1341" data-name="Path 1341" d="M244.754,146.691c-3.378,0-6.756.005-10.133,0-1.881,0-2.411-.547-2.412-2.439q0-6.58,0-13.161c0-1.671.6-2.272,2.263-2.273q10.29-.008,20.58,0c1.659,0,2.237.6,2.239,2.28q.005,6.685,0,13.37c0,1.624-.567,2.212-2.194,2.22-3.447.016-6.895.005-10.342.005" transform="translate(-167.37 -92.845)" fill="#137ee8"/>
      <path id="Path_1342" data-name="Path 1342" d="M128.748,51.62q5.119,0,10.238,0c1.618,0,2.194.578,2.2,2.2q.008,6.737,0,13.474c0,1.544-.6,2.139-2.152,2.141q-10.395.008-20.789,0c-1.549,0-2.139-.6-2.141-2.149q-.01-6.789,0-13.579c0-1.483.61-2.084,2.1-2.087,3.517-.008,7.034,0,10.551,0" transform="translate(-83.679 -37.205)" fill="#137ee8"/>
      <path id="Path_1343" data-name="Path 1343" d="M244.736,69.443c-3.447,0-6.895.005-10.342,0-1.6,0-2.185-.592-2.187-2.218q-.009-6.685,0-13.369c0-1.664.583-2.23,2.279-2.231q10.289,0,20.579,0c1.647,0,2.22.557,2.222,2.166q.009,6.736,0,13.474c0,1.617-.57,2.176-2.21,2.178q-5.17.009-10.341,0" transform="translate(-167.367 -37.207)" fill="#137ee8"/>
      <path id="Path_1344" data-name="Path 1344" d="M12.448,69.441q-5.119,0-10.237,0C.568,69.437.005,68.881,0,67.26Q0,60.524,0,53.786c0-1.578.571-2.163,2.116-2.164q10.394-.008,20.788,0c1.6,0,2.173.594,2.176,2.23q.008,6.685,0,13.369c0,1.623-.587,2.214-2.189,2.217q-5.223.011-10.446,0" transform="translate(0 -37.206)" fill="#137ee8"/>
      <path id="Path_1345" data-name="Path 1345" d="M12.607,283.508c3.412,0,6.825-.005,10.237,0,1.683,0,2.24.57,2.242,2.267q.007,6.633,0,13.265c0,1.731-.581,2.3-2.331,2.3q-10.237,0-20.474,0c-1.7,0-2.273-.56-2.275-2.232Q0,292.427,0,285.742c0-1.7.538-2.228,2.26-2.232q5.171-.01,10.342,0" transform="translate(-0.001 -204.346)" fill="#137ee8"/>
      <path id="Path_1346" data-name="Path 1346" d="M128.615,10.659c-2.366,0-4.732.01-7.1,0a5.218,5.218,0,0,1-5.407-5.28A5.2,5.2,0,0,1,121.532.01q7.1-.02,14.2,0A5.138,5.138,0,0,1,141.17,5.34a5.144,5.144,0,0,1-5.457,5.316c-2.366.013-4.732,0-7.1,0m.05-7.169c-2.329,0-4.658-.008-6.987,0-1.407.007-2.091.641-2.073,1.878.018,1.186.684,1.8,2.044,1.807q6.987.018,13.974,0c1.414,0,2.1-.652,2.086-1.88-.017-1.171-.709-1.8-2.057-1.8-2.329-.013-4.658,0-6.987,0" transform="translate(-83.689 0)" fill="#137ee8"/>
      <path id="Path_1347" data-name="Path 1347" d="M244.818,10.656c-2.471,0-4.943.04-7.412-.011A4.986,4.986,0,0,1,232.4,6.1,5.168,5.168,0,0,1,235.689.352a6.644,6.644,0,0,1,2.043-.33q7.1-.041,14.2-.011a5.126,5.126,0,0,1,5.433,5.328,5.128,5.128,0,0,1-5.446,5.317c-2.366.013-4.733,0-7.1,0Zm-.1-3.472c2.33,0,4.659.008,6.989,0,1.483-.007,2.227-.65,2.214-1.874-.013-1.175-.756-1.812-2.167-1.814q-6.937-.01-13.873,0c-1.426,0-2.1.622-2.082,1.869.013,1.193.674,1.806,2.036,1.816,2.295.017,4.59,0,6.884.006" transform="translate(-167.46 0)" fill="#137ee8"/>
      <path id="Path_1348" data-name="Path 1348" d="M12.57.011c2.366,0,4.733-.015,7.1,0a5.14,5.14,0,0,1,5.395,5.379,5.125,5.125,0,0,1-5.4,5.265q-7.151.026-14.3,0A5.173,5.173,0,0,1,.013,5.332,5.171,5.171,0,0,1,5.366.015c2.4-.017,4.8,0,7.2,0m-.08,7.174V7.176c2.468,0,4.937.028,7.4-.013a1.639,1.639,0,0,0,1.7-1.822,1.652,1.652,0,0,0-1.7-1.828q-7.352-.04-14.7,0a1.618,1.618,0,0,0-1.7,1.721A1.717,1.717,0,0,0,5.4,7.178c2.364.026,4.728.007,7.092.007" transform="translate(-0.009 -0.004)" fill="#137ee8"/>
    </g>
  </g>
</svg>
