<svg id="Group_589" data-name="Group 589" xmlns="http://www.w3.org/2000/svg" xmlns:xlink="http://www.w3.org/1999/xlink" width="103.159" height="103.159" viewBox="0 0 103.159 103.159">
  <defs>
    <clipPath id="clip-path">
      <rect id="Rectangle_310" data-name="Rectangle 310" width="103.159" height="103.159" fill="#137ee8"/>
    </clipPath>
  </defs>
  <g id="Group_588" data-name="Group 588" clip-path="url(#clip-path)">
    <path id="Path_1375" data-name="Path 1375" d="M366.333,97.887V64.817a.515.515,0,0,0,.094-.138,4.372,4.372,0,0,1,4.659-3.5q24.474,0,48.947,0c.6,0,1.208-.009,1.811.005a4.34,4.34,0,0,1,4.309,4.33q.024,15.887,0,31.776a4.022,4.022,0,0,1-2.35,3.815,5.711,5.711,0,0,1-2.412.512q-25.144.043-50.289.021c-.175,0-.351,0-.526-.007a4.369,4.369,0,0,1-4.021-3.032c-.076-.237-.145-.477-.219-.715m10.735-24.559c-1.245,0-2.49-.008-3.734,0a1.255,1.255,0,0,0-1.416,1.4q-.02,2.654,0,5.308a1.264,1.264,0,0,0,1.387,1.435q3.733.029,7.466,0A1.3,1.3,0,0,0,382.205,80q.016-2.6,0-5.192c-.005-1.01-.494-1.48-1.521-1.485-1.2-.005-2.411,0-3.616,0m6.721,22.5q5.051,0,10.1,0a5.236,5.236,0,0,0,.642-.022,1.265,1.265,0,0,0,.122-2.492,3.319,3.319,0,0,0-.694-.054q-10.192-.006-20.383,0a3.355,3.355,0,0,0-.639.045,1.228,1.228,0,0,0-1.018,1.3c.025.762.561,1.222,1.471,1.223q5.2.008,10.4,0m28.465-24.549h1.46c1.83,0,3.659.009,5.489-.005a1.27,1.27,0,0,0,1.346-1.557,1.35,1.35,0,0,0-1.5-1.015q-6.744-.006-13.489,0a2.3,2.3,0,0,0-.52.052,1.247,1.247,0,0,0-.982,1.438,1.264,1.264,0,0,0,1.425,1.083c2.258.007,4.516,0,6.774,0m-13,18.823c.915,0,1.831.008,2.745,0s1.488-.5,1.489-1.28a1.313,1.313,0,0,0-1.484-1.3q-2.776-.016-5.55,0a1.332,1.332,0,0,0-1.468,1.321,1.317,1.317,0,0,0,1.464,1.252c.935.012,1.869,0,2.8,0m-23.109,0c.953,0,1.907.013,2.862,0a1.26,1.26,0,0,0,1.387-1.253,1.283,1.283,0,0,0-1.4-1.315q-2.833-.028-5.664,0a1.292,1.292,0,1,0,.012,2.571c.934.014,1.868,0,2.8,0m11.515,0c.955,0,1.908.01,2.862,0a1.265,1.265,0,0,0,1.414-1.285,1.281,1.281,0,0,0-1.426-1.286q-2.831-.024-5.664,0a1.285,1.285,0,0,0-1.388,1.325,1.269,1.269,0,0,0,1.4,1.244c.934.014,1.869,0,2.8,0m23.109,0c.935,0,1.869.009,2.8,0a1.3,1.3,0,1,0,0-2.574q-2.8-.02-5.608,0a1.293,1.293,0,1,0,0,2.571c.934.014,1.869,0,2.8,0" transform="translate(-344.668 -29.83)" fill="#137ee8"/>
  </g>
</svg>
