<svg id="Group_591" data-name="Group 591" xmlns="http://www.w3.org/2000/svg" xmlns:xlink="http://www.w3.org/1999/xlink" width="103.159" height="103.159" viewBox="0 0 103.159 103.159">
  <defs>
    <clipPath id="clip-path">
      <rect id="Rectangle_311" data-name="Rectangle 311" width="103.159" height="103.159" fill="#137ee8"/>
    </clipPath>
  </defs>
  <g id="Group_590" data-name="Group 590" clip-path="url(#clip-path)">
    <path id="Path_1376" data-name="Path 1376" d="M195.375,101.435a2.145,2.145,0,0,1-2.242,1.319c-7.041-.03-14.083-.016-21.124-.016-1.5,0-2.133-.639-2.133-2.156V79.4c0-1.5.652-2.164,2.136-2.164h8.256c.013.241.033.448.034.656,0,2.063-.013,4.127.007,6.19a2.319,2.319,0,1,0,4.635.068c.01-2.081,0-4.163,0-6.245v-.669h.612c2.5,0,5,.033,7.493-.014a2.226,2.226,0,0,1,2.323,1.291Z" transform="translate(-116.92 -24.854)" fill="#137ee8"/>
    <path id="Path_1377" data-name="Path 1377" d="M182.534,54.24a2.074,2.074,0,0,1,1.345,2.217c-.029,7.041-.014,14.08-.014,21.121,0,1.552-.614,2.161-2.175,2.161-7.041,0-14.082-.017-21.121.016a1.97,1.97,0,0,1-2.194-2.177q.063-10.561,0-21.121a2.081,2.081,0,0,1,1.346-2.217h9.125c-.005,2.389-.041,4.778,0,7.165a2.292,2.292,0,0,0,4.566,0c.038-2.388,0-4.776,0-7.165Z" transform="translate(-120.482 -31.971)" fill="#137ee8"/>
    <path id="Path_1378" data-name="Path 1378" d="M157.308,77.236v4.081c0,.923-.005,1.847,0,2.769a2.319,2.319,0,1,0,4.635.06c.026-1.865.008-3.729.008-5.594V77.236h.625q3.856,0,7.71,0a1.831,1.831,0,0,1,2.092,2.1q0,10.642,0,21.284c0,1.476-.643,2.116-2.119,2.116H148.975c-1.443,0-2.1-.646-2.1-2.077V79.32a1.823,1.823,0,0,1,2.1-2.084q3.854,0,7.71,0Z" transform="translate(-124.042 -24.85)" fill="#137ee8"/>
  </g>
</svg>
