<svg xmlns="http://www.w3.org/2000/svg" xmlns:xlink="http://www.w3.org/1999/xlink" width="88.817" height="88.807" viewBox="0 0 88.817 88.807">
  <defs>
    <clipPath id="clip-path">
      <rect id="Rectangle_307" data-name="Rectangle 307" width="88.817" height="88.807" fill="#137ee8"/>
    </clipPath>
  </defs>
  <g id="Group_585" data-name="Group 585" transform="translate(0)">
    <g id="Group_584" data-name="Group 584" transform="translate(0 0)" clip-path="url(#clip-path)">
      <path id="Path_1370" data-name="Path 1370" d="M70.083,0h1.908c.183.073.363.157.55.217a4.023,4.023,0,0,1,2.9,3.708c.058,1.038.028,2.08.035,3.121,0,.592,0,1.185,0,1.821,1.325,0,2.513.068,3.691-.014a4.97,4.97,0,0,1,5.229,5.17c-.111,6.5-.034,13.006-.034,19.51v.891c-14.984-10.263-29.8-10.729-44.565.219-14.265,12.936-16.639,28.1-8.543,45.274a1.388,1.388,0,0,1-.241.029c-8.816,0-17.631.023-26.447-.012A4.436,4.436,0,0,1,.006,75.211q-.011-30.782,0-61.565A4.484,4.484,0,0,1,4.791,8.87c1.965-.016,3.931,0,5.9,0h2.67c0-1.661-.034-3.216.01-4.769A3.919,3.919,0,0,1,15.409.6,12.776,12.776,0,0,1,16.828,0h1.908c2.726.8,3.635,2.754,3.48,5.423-.065,1.115-.011,2.237-.011,3.4H66.617c0-1.509-.028-2.975.007-4.44A4.136,4.136,0,0,1,69.135.375c.309-.139.631-.251.947-.375" transform="translate(0)" fill="#137ee8"/>
      <path id="Path_1371" data-name="Path 1371" d="M216.931,188.6v3.3a6.152,6.152,0,0,0-.133.665,26.394,26.394,0,0,1-5.351,13.773,26.609,26.609,0,1,1-24.266-42.54,26.631,26.631,0,0,1,28.711,19.3c.491,1.794.7,3.666,1.038,5.5m-22.2-2.788c0-.428,0-.74,0-1.052,0-2.689.043-5.378-.025-8.065a4.413,4.413,0,0,0-8.818.023q-.072,6.851,0,13.7a4.025,4.025,0,0,0,4.129,4.221c3.149.072,6.3.046,9.452,0a3.869,3.869,0,0,0,3.43-1.869,4.714,4.714,0,0,0,.158-4.8,3.969,3.969,0,0,0-3.778-2.159c-1.471-.021-2.942,0-4.548,0" transform="translate(-128.114 -128.058)" fill="#137ee8"/>
    </g>
  </g>
</svg>
