<svg xmlns="http://www.w3.org/2000/svg" xmlns:xlink="http://www.w3.org/1999/xlink" width="82.228" height="97.06" viewBox="0 0 82.228 97.06">
  <defs>
    <clipPath id="clip-path">
      <rect id="Rectangle_294" data-name="Rectangle 294" width="82.228" height="97.06" fill="#137ee8"/>
    </clipPath>
  </defs>
  <g id="Group_576" data-name="Group 576" transform="translate(0 0)">
    <g id="Group_575" data-name="Group 575" transform="translate(0 0)" clip-path="url(#clip-path)">
      <path id="Path_1349" data-name="Path 1349" d="M94.736,296.952c1.137-1.041.666-2.371.483-3.545-.161-1.036-1.159-1.279-2.143-1.341a6.083,6.083,0,0,1-5.59-4,6.149,6.149,0,0,1,1.178-6.782c1.081-1.246,1.052-2.1-.121-3.281q-1.7-1.714-3.414-3.418c-1.26-1.255-2.065-1.279-3.419-.111A6.473,6.473,0,0,1,71.141,271.1c-.122-.518-.117-1.064-.191-1.594A1.841,1.841,0,0,0,69,267.716c-1.925-.037-3.852-.042-5.777,0-1.3.029-1.883.717-1.984,2.265a6.186,6.186,0,0,1-2.838,4.987,6.37,6.37,0,0,1-7.886-.5c-1.354-1.167-2.16-1.144-3.42.109-1.164,1.157-2.33,2.313-3.483,3.483a1.976,1.976,0,0,0-.114,3.144,6.483,6.483,0,0,1-4.437,10.878c-1.6.107-2.213.75-2.184,2.345.015.87-.341,1.865.606,2.524H51.513a5.711,5.711,0,0,0,.581-1.419,14.1,14.1,0,0,1,28.018-.192,7.693,7.693,0,0,0,.6,1.611Z" transform="translate(-22.57 -199.892)" fill="#137ee8"/>
      <path id="Path_1350" data-name="Path 1350" d="M137.539,360.785a1.691,1.691,0,0,0,.4-1.88,7.63,7.63,0,0,0-7.694-5.735,7.527,7.527,0,0,0-7.194,6.2c-.072.435.294.942.457,1.415Z" transform="translate(-86.985 -263.725)" fill="#137ee8"/>
      <path id="Path_1351" data-name="Path 1351" d="M41.057,193.21a14.528,14.528,0,0,1,2.444.5,4.5,4.5,0,0,1,2.951,3.846,9.862,9.862,0,0,0,.247,1.68,3.586,3.586,0,0,0,5.69,1.693,5.654,5.654,0,0,1,4.469-1.624c.209.024.568-.4.7-.681q3.931-8.545,7.821-17.11l1.73-3.794a13.5,13.5,0,0,1-10.889-5.8L41.057,193.21" transform="translate(4.721 -128.383)" fill="#137ee8"/>
      <path id="Path_1352" data-name="Path 1352" d="M0,111.993a10.354,10.354,0,1,0,10.374-10.328A10.331,10.331,0,0,0,0,111.993m4.135.118a6.216,6.216,0,1,1,12.43-.193,6.148,6.148,0,0,1-6.07,6.309,6.153,6.153,0,0,1-6.361-6.116" transform="translate(61.52 -75.918)" fill="#137ee8"/>
      <path id="Path_1353" data-name="Path 1353" d="M60.131,51.112A12.315,12.315,0,0,1,52.9,58.546l9.971,12.08a13.549,13.549,0,0,1,9.694-9.248L60.131,51.112" transform="translate(-3.731 -38.168)" fill="#137ee8"/>
      <path id="Path_1354" data-name="Path 1354" d="M110.822,9.161A9.114,9.114,0,1,0,119.849,0a9.066,9.066,0,0,0-9.027,9.16m9.094,5.624A5.662,5.662,0,1,1,125.6,9.144a5.656,5.656,0,0,1-5.684,5.641" transform="translate(-74.888 -0.001)" fill="#137ee8"/>
      <path id="Path_1355" data-name="Path 1355" d="M178.185,45.713,168.7,57.2a24.088,24.088,0,0,1,3.026,2.235,24.66,24.66,0,0,1,2.262,3.046l10.382-8.573a12.427,12.427,0,0,1-6.184-8.2" transform="translate(-144.865 -34.136)" fill="#137ee8"/>
      <path id="Path_1356" data-name="Path 1356" d="M225.4,112.75a5.914,5.914,0,1,0-5.953-5.952,5.931,5.931,0,0,0,5.953,5.952m-.026-7.3a1.389,1.389,0,0,1,.081,2.778,1.39,1.39,0,1,1-.081-2.778" transform="translate(-204.682 -75.364)" fill="#137ee8"/>
      <path id="Path_1357" data-name="Path 1357" d="M224.681,167.242c.554.527.98.986,1.468,1.366a1.053,1.053,0,0,0,.767.127c4.325-.878,8.649-1.757,12.959-2.705.367-.081.916-.666.893-.981-.219-2.979-.544-5.95-.838-8.913a29.381,29.381,0,0,1-2.94.626,27.406,27.406,0,0,1-2.932.023l1.177,5.446-10.554,5.013" transform="translate(-215.443 -116.593)" fill="#137ee8"/>
      <path id="Path_1358" data-name="Path 1358" d="M287.466,112.541l.565-5.849-7.283-.775c-.314-.033-.631-.043-.941-.1a1.145,1.145,0,0,0-1.512,1c-.895,4.319-1.8,8.636-2.683,12.958a1.074,1.074,0,0,0,.208.748c.352.48.769.913,1.269,1.492.724-1.517,1.343-2.81,1.957-4.1.918-1.936,1.85-3.865,2.739-5.814.248-.543.483-.744,1.131-.573,1.549.408,3.128.7,4.549,1.012" transform="translate(-275.601 -78.994)" fill="#137ee8"/>
      <path id="Path_1359" data-name="Path 1359" d="M30.907,135.875a3.4,3.4,0,0,0,.009-6.8,3.4,3.4,0,1,0-.009,6.8" transform="translate(40.959 -96.389)" fill="#137ee8"/>
      <path id="Path_1360" data-name="Path 1360" d="M138.456,24.853a2.846,2.846,0,0,0-2.815,2.844,2.829,2.829,0,0,0,5.657-.019,2.865,2.865,0,0,0-2.843-2.824" transform="translate(-93.422 -18.559)" fill="#137ee8"/>
    </g>
  </g>
</svg>
