<svg id="Group_593" data-name="Group 593" xmlns="http://www.w3.org/2000/svg" xmlns:xlink="http://www.w3.org/1999/xlink" width="103.159" height="103.159" viewBox="0 0 103.159 103.159">
  <defs>
    <clipPath id="clip-path">
      <rect id="Rectangle_312" data-name="Rectangle 312" width="103.159" height="103.159" fill="#137ee8"/>
    </clipPath>
  </defs>
  <g id="Group_592" data-name="Group 592" clip-path="url(#clip-path)">
    <path id="Path_1379" data-name="Path 1379" d="M251.083,64.88c.107-.563.221-1.126.322-1.691a1.693,1.693,0,0,1,1.253-1.441,1.748,1.748,0,0,1,1.83.563q2.962,2.974,5.946,5.929a1.266,1.266,0,0,0,.79.331c1.463.033,2.926.016,4.453.016,0-1.621.01-3.2-.016-4.772,0-.17-.2-.356-.341-.5-1.934-1.942-3.867-3.886-5.818-5.811a1.847,1.847,0,0,1-.639-1.968,1.869,1.869,0,0,1,1.586-1.253,12.119,12.119,0,0,1,14.819,10.459,11.544,11.544,0,0,1-.483,4.974.682.682,0,0,0,.191.809q9.449,9.428,18.878,18.877a.688.688,0,0,0,.8.213,12.023,12.023,0,0,1,15.6,9.884,12.945,12.945,0,0,1-.19,4.66,1.719,1.719,0,0,1-1.238,1.391,1.7,1.7,0,0,1-1.789-.513c-1.965-1.967-3.937-3.925-5.887-5.907a1.321,1.321,0,0,0-1.06-.427c-1.407.022-2.813.008-4.293.008a27.679,27.679,0,0,1-.024,3.08,3.415,3.415,0,0,0,1.29,3.152c1.713,1.556,3.291,3.26,4.941,4.885a1.827,1.827,0,0,1,.605,1.928,1.735,1.735,0,0,1-1.524,1.24c-.567.092-1.132.207-1.7.313h-2.2a1.784,1.784,0,0,0-.321-.1A12.033,12.033,0,0,1,286.667,97.69a.854.854,0,0,0-.246-1q-9.308-9.277-18.583-18.586a1.111,1.111,0,0,0-1.3-.337,11.983,11.983,0,0,1-14.886-8.044c-.257-.859-.385-1.758-.574-2.638Z" transform="translate(-229.172 -32.062)" fill="#137ee8"/>
    <path id="Path_1380" data-name="Path 1380" d="M251.083,96.65a18.627,18.627,0,0,1,.874-2.795A8.9,8.9,0,0,1,253.6,91.5c4.856-4.915,9.756-9.789,14.641-14.675.054-.054.115-.1.117-.1l12.27,12.269c-.052.056-.172.2-.3.33q-7.061,7.064-14.121,14.132a8.921,8.921,0,0,1-5.291,2.729.931.931,0,0,0-.211.086h-1.853c-.147-.037-.291-.086-.439-.111a8.715,8.715,0,0,1-3.536-1.416,3.74,3.74,0,0,0,.58-.384q6.314-6.3,12.614-12.61a3.831,3.831,0,0,0,.53-.609,1.723,1.723,0,0,0-1.392-2.66,2.008,2.008,0,0,0-1.518.719Q259.347,95.55,253,101.9a4.32,4.32,0,0,0-.409.613,7.726,7.726,0,0,1-.575-1.044c-.331-.981-.625-1.974-.933-2.963Z" transform="translate(-229.172 -25.018)" fill="#137ee8"/>
    <path id="Path_1381" data-name="Path 1381" d="M280.036,78.757l-2.516-2.515c.123-.13.263-.282.41-.427,2.333-2.334,4.673-4.661,6.988-7.011a1.816,1.816,0,0,0,.471-.936c.378-2.458.718-4.922,1.065-7.384a1.748,1.748,0,0,1,.988-1.405q4.884-2.446,9.772-4.885a1.656,1.656,0,0,1,2.026.309c.849.816,1.683,1.648,2.494,2.5a1.6,1.6,0,0,1,.3,1.928q-2.454,4.947-4.936,9.879a1.715,1.715,0,0,1-1.375.939c-2.462.348-4.926.686-7.384,1.063a1.814,1.814,0,0,0-.936.47c-2.336,2.3-4.651,4.628-6.966,6.952a4.931,4.931,0,0,0-.4.523" transform="translate(-220.985 -32.06)" fill="#137ee8"/>
  </g>
</svg>
