<svg xmlns="http://www.w3.org/2000/svg" xmlns:xlink="http://www.w3.org/1999/xlink" width="88.458" height="88.492" viewBox="0 0 88.458 88.492">
  <defs>
    <clipPath id="clip-path">
      <rect id="Rectangle_295" data-name="Rectangle 295" width="88.458" height="88.492" fill="#137ee8"/>
    </clipPath>
  </defs>
  <g id="Group_578" data-name="Group 578" transform="translate(0)">
    <g id="Group_577" data-name="Group 577" transform="translate(0 0)" clip-path="url(#clip-path)">
      <path id="Path_1361" data-name="Path 1361" d="M.034,15.939c3.1,0,6.094-.067,9.084.014,6.346.171,6.868-.389,6.693-6.741-.073-2.663-.012-5.33-.012-8V.144h1.135q14.958,0,29.916,0c2.486,0,3.7,1.208,3.7,3.68q0,10.168,0,20.335v.826c-2.388-.727-4.7-1.573-7.086-2.111a26.171,26.171,0,0,0-5.574-.591c-9.84-.055-19.68-.026-29.521-.026-.132,0-.264,0-.395,0a1.585,1.585,0,0,0-1.652,1.594,1.567,1.567,0,0,0,1.689,1.553c2.238.023,4.476.009,6.714.009h10c-.359.258-.536.412-.737.526a30.446,30.446,0,0,0-6.681,5.186,2.129,2.129,0,0,1-1.336.579c-2.533.055-5.068.023-7.6.028-1.321,0-2.059.586-2.043,1.6s.742,1.555,2.087,1.558c1.9,0,3.792,0,5.645,0-.953,2.041-1.866,4.028-2.824,5.992-.089.181-.467.3-.717.31-.854.039-1.712-.009-2.566.024a1.571,1.571,0,1,0-.007,3.141c.717.031,1.437.006,2.142.006-.246,2.127-.483,4.171-.728,6.294-1.195.133-3.046-.385-2.974,1.655.074,2.1,2,1.341,3.165,1.574l1.457,6.274c-.93,0-1.87-.009-2.81,0-1.167.014-1.868.614-1.869,1.576s.7,1.566,1.867,1.578c1.218.013,2.436-.026,3.652.024a1.215,1.215,0,0,1,.85.445c1.274,1.907,2.5,3.844,3.757,5.791a4.634,4.634,0,0,1-.576.057q-6.22.006-12.44,0A3.159,3.159,0,0,1,0,66.284q-.01-24.826,0-49.652c0-.192.017-.384.032-.693" transform="translate(0 -0.106)" fill="#137ee8"/>
      <path id="Path_1362" data-name="Path 1362" d="M94.369,134.974c.776.724,1.525,1.459,2.322,2.139a.943.943,0,0,0,.763.111,3.2,3.2,0,0,1,3.416.932c2.624,2.634,5.274,5.242,7.88,7.894a7.617,7.617,0,1,1-10.76,10.78c-2.654-2.6-5.259-5.257-7.9-7.878a3.219,3.219,0,0,1-.951-3.411,1.042,1.042,0,0,0-.164-.835c-.659-.772-1.379-1.49-2.092-2.245-6.633,4.04-13.587,5.141-20.934,2.98A24.541,24.541,0,0,1,52.07,135.129a25.257,25.257,0,1,1,42.3-.155M54.2,121.187a18.957,18.957,0,1,0,19.005-18.9,18.989,18.989,0,0,0-19.005,18.9" transform="translate(-35.243 -70.655)" fill="#137ee8"/>
      <path id="Path_1363" data-name="Path 1363" d="M203.865,15.819v-6.3h5.841c1.546,0,3.094.042,4.637-.026a2.264,2.264,0,0,0,1.352-.555c1.575-1.492,3.1-3.037,4.619-4.59a3.513,3.513,0,0,1,2.821-1.15c.361.019.726-.025,1.085.008a4.155,4.155,0,0,0,3.836-1.407,6.032,6.032,0,0,1,8.871.319,6.315,6.315,0,0,1-.464,8.942,6.239,6.239,0,0,1-8.983-.629,2.842,2.842,0,0,0-4.2-.114c-1.465,1.465-2.887,2.978-4.419,4.37a3.746,3.746,0,0,1-2.118,1.085c-4.268.1-8.539.05-12.881.05" transform="translate(-150.104 0)" fill="#137ee8"/>
      <path id="Path_1364" data-name="Path 1364" d="M203.871,69.507V63.189h1.036q10.463,0,20.925.01a1.592,1.592,0,0,0,1.479-.673,6.2,6.2,0,0,1,9.225-.817,6.315,6.315,0,0,1,.054,9.228,6.212,6.212,0,0,1-9.3-.787A1.51,1.51,0,0,0,225.9,69.5q-10.462.025-20.925.011Z" transform="translate(-150.108 -44.197)" fill="#137ee8"/>
      <path id="Path_1365" data-name="Path 1365" d="M213.037,107.949c3.4,0,6.917-.06,10.426.049a3.746,3.746,0,0,1,2.127,1.063c1.624,1.485,3.136,3.091,4.7,4.646a2.943,2.943,0,0,0,3.791-.18,6.255,6.255,0,0,1,9.248-.714,6.32,6.32,0,0,1-.022,9.223,6.206,6.206,0,0,1-9.226-.773,1.616,1.616,0,0,0-1.463-.7c-5.045-.011-3.885.474-7.519-3.117a9.53,9.53,0,0,1-.969-.981,4.934,4.934,0,0,0-5.134-2.229,1.072,1.072,0,0,1-.821-.345c-1.728-1.963-3.424-3.953-5.134-5.94" transform="translate(-156.857 -79.47)" fill="#137ee8"/>
      <path id="Path_1366" data-name="Path 1366" d="M13.768,14.114H1.647L13.768,2Z" transform="translate(-1.213 -1.47)" fill="#137ee8"/>
      <path id="Path_1367" data-name="Path 1367" d="M83.874,147.639A15.8,15.8,0,1,1,99.626,163.5a15.8,15.8,0,0,1-15.752-15.864m14.6,3.232c-.828,0-1.477-.015-2.127,0a6.325,6.325,0,0,0-5.837,4.391,1.2,1.2,0,0,0,.311,1.4,12.534,12.534,0,0,0,17.678.028,1.205,1.205,0,0,0,.351-1.394,6.328,6.328,0,0,0-5.811-4.426c-.659-.02-1.319,0-1.979,0,3.418-1.246,5.348-4.023,4.884-7.149a6.314,6.314,0,0,0-12.449-.425c-.7,3.288,1.037,6,4.98,7.573" transform="translate(-61.755 -97.128)" fill="#137ee8"/>
    </g>
  </g>
</svg>
