<svg id="Group_587" data-name="Group 587" xmlns="http://www.w3.org/2000/svg" xmlns:xlink="http://www.w3.org/1999/xlink" width="100.485" height="77.593" viewBox="0 0 100.485 77.593">
  <defs>
    <clipPath id="clip-path">
      <rect id="Rectangle_308" data-name="Rectangle 308" width="100.485" height="77.593" fill="#137ee8"/>
    </clipPath>
  </defs>
  <g id="Group_586" data-name="Group 586" transform="translate(0 0)" clip-path="url(#clip-path)">
    <path id="Path_1372" data-name="Path 1372" d="M215.682,156.895a5.083,5.083,0,0,1-1.7.7c-7.454.048-14.908.021-22.362.045a1.9,1.9,0,0,1-1.871-1.116c-.939-1.717-1.948-3.4-3-5.221-.235.371-.417.65-.591.935a33.961,33.961,0,0,1-6.449,7.724c-1.011.9-1.491.877-2.365-.137q-10.3-11.965-20.594-23.938c-1.015-1.18-.772-2.029.708-2.411q15.357-3.97,30.719-7.919c1.127-.29,1.64-.012,1.9,1.067a33.724,33.724,0,0,1-1.867,21.668,2.583,2.583,0,0,1-.225.327c-.21-.327-.4-.6-.57-.895q-3.334-5.768-6.666-11.538c-.179-.309-.336-.731-.614-.858-.4-.18-1.031-.33-1.311-.133-.332.234-.428.841-.556,1.305-.039.14.148.349.246.519q3.966,6.874,7.937,13.745c.079.137.185.259.321.446l1.222-2.292a7.658,7.658,0,0,1,.465.633c.92,1.58,1.87,3.146,2.73,4.758a1.622,1.622,0,0,0,1.668.986q10.494-.057,20.989.006a6.382,6.382,0,0,1,1.847.609Z" transform="translate(-115.197 -92.562)" fill="#137ee8"/>
    <path id="Path_1373" data-name="Path 1373" d="M34.943,55.723c0,5.036.012,10.072-.013,15.108a2.574,2.574,0,0,0,.657,1.845q9.94,11.5,19.838,23.045c1.077,1.252,1.044,1.66-.24,2.709C35.47,114.547,5.613,103.88.65,78.948A33.83,33.83,0,0,1,29.1,38.912c1.421-.191,2.866-.234,4.3-.29,1.156-.046,1.534.344,1.535,1.5q.01,7.8,0,15.6M5.906,71.327c0,.131,0,.261,0,.392-.018,1.2.363,1.788,1.162,1.792s1.08-.57,1.214-1.778a42.136,42.136,0,0,1,.906-6.078A24.734,24.734,0,0,1,19.463,51.224c.667-.46,1.054-1.009.6-1.806-.378-.658-1.08-.724-1.866-.178C10.5,54.6,6.508,62.02,5.906,71.327" transform="translate(0 -28.494)" fill="#137ee8"/>
    <path id="Path_1374" data-name="Path 1374" d="M173.878,8.02l-1.9-1.266c-.178.254-.337.45-.462.666q-3.777,6.534-7.547,13.072c-.033.056-.07.11-.1.168-.443.833-.329,1.541.339,1.861.788.378,1.308,0,1.7-.673q3.111-5.39,6.223-10.78c.552-.956,1.11-1.908,1.775-3.05,1.474,1.344,2.936,2.543,4.243,3.892a33.3,33.3,0,0,1,8.215,14.408c.374,1.333.133,1.766-1.225,2.116q-15.364,3.957-30.733,7.9c-1.174.3-1.755-.143-1.756-1.354q-.01-15.993,0-31.985c0-1.088.391-1.468,1.489-1.458a33.311,33.311,0,0,1,16.715,4.607c.31.18.618.363,1.038.61.775-1.333,1.533-2.655,2.309-3.966,1.934-3.266.98-2.75,4.824-2.765C185.659,0,192.3.014,198.937.014c.262,0,.524-.007.785,0,.8.034,1.357.411,1.323,1.247-.032.782-.578,1.1-1.347,1.1q-5.789-.009-11.577,0c-3.369,0-6.737.017-10.106-.015a1.274,1.274,0,0,0-1.309.757c-.905,1.656-1.879,3.275-2.828,4.91" transform="translate(-112.623 -0.001)" fill="#137ee8"/>
  </g>
</svg>
