<svg xmlns="http://www.w3.org/2000/svg" xmlns:xlink="http://www.w3.org/1999/xlink" width="273.54" height="61.901" viewBox="0 0 273.54 61.901">
  <defs>
    <filter id="Path_1306" x="0" y="0" width="56.401" height="61.901" filterUnits="userSpaceOnUse">
      <feOffset dy="1.4" input="SourceAlpha"/>
      <feGaussianBlur stdDeviation="2.09" result="blur"/>
      <feFlood flood-opacity="0.149"/>
      <feComposite operator="in" in2="blur"/>
      <feComposite in="SourceGraphic"/>
    </filter>
  </defs>
  <g id="Layer_1-2" transform="translate(-0.19 -0.202)">
    <path id="Path_1297" data-name="Path 1297" d="M78.717,49.39V18.6H91.459a15.062,15.062,0,0,1,6,1.043,8.011,8.011,0,0,1,3.594,2.847,7.245,7.245,0,0,1,1.2,4.087,5.993,5.993,0,0,1-2.882,5.363,9.325,9.325,0,0,1-2.939,1.184v.3a7.752,7.752,0,0,1,3.4,1,7.271,7.271,0,0,1,2.671,2.565,7.382,7.382,0,0,1,1.043,4,7.688,7.688,0,0,1-1.254,4.292,8.286,8.286,0,0,1-3.77,3,15.9,15.9,0,0,1-6.343,1.1H78.71Zm6.033-17.7h5.962a7.021,7.021,0,0,0,2.812-.536A4.617,4.617,0,0,0,95.5,29.643a3.865,3.865,0,0,0,.726-2.34,3.688,3.688,0,0,0-1.36-2.946A6.078,6.078,0,0,0,90.839,23.2h-6.1v8.492Zm0,13.038h6.484q3.288,0,4.736-1.163a3.659,3.659,0,0,0,1.452-3,4.41,4.41,0,0,0-.733-2.474,4.938,4.938,0,0,0-2.079-1.741,7.5,7.5,0,0,0-3.221-.641H84.743v9.021Z" transform="translate(-20.89 -3.538)" fill="#137ee8"/>
    <path id="Path_1298" data-name="Path 1298" d="M120.66,52.475V29.381h5.708v3.848h.261a5.84,5.84,0,0,1,2.347-3.087,6.806,6.806,0,0,1,3.813-1.092c.324,0,.691.014,1.1.035a9.41,9.41,0,0,1,1.015.113v5a6.963,6.963,0,0,0-1.177-.218,13.278,13.278,0,0,0-1.55-.1,6.284,6.284,0,0,0-2.882.641,5.055,5.055,0,0,0-2.009,1.769,4.694,4.694,0,0,0-.733,2.6V52.468h-5.885Z" transform="translate(-33.276 -6.623)" fill="#137ee8"/>
    <path id="Path_1299" data-name="Path 1299" d="M152.051,52.958a10.922,10.922,0,0,1-4.264-.789,6.713,6.713,0,0,1-2.988-2.34,6.42,6.42,0,0,1-1.1-3.82,6.109,6.109,0,0,1,.782-3.235,5.811,5.811,0,0,1,2.128-2.044,11.438,11.438,0,0,1,3.044-1.163,27.732,27.732,0,0,1,3.517-.578c1.466-.141,2.65-.268,3.559-.381a5.457,5.457,0,0,0,1.994-.543,1.242,1.242,0,0,0,.627-1.149v-.092A3.268,3.268,0,0,0,158.26,34.2a4.693,4.693,0,0,0-3.136-.93,5.888,5.888,0,0,0-3.418.874,4.376,4.376,0,0,0-1.7,2.058l-5.5-.719a8.074,8.074,0,0,1,2.142-3.524,9.616,9.616,0,0,1,3.658-2.135,15.248,15.248,0,0,1,4.778-.712,16.754,16.754,0,0,1,3.594.388,10.808,10.808,0,0,1,3.27,1.283,6.849,6.849,0,0,1,2.382,2.431,7.474,7.474,0,0,1,.9,3.834V52.5h-5.659V49.329h-.2a6.8,6.8,0,0,1-1.5,1.8,7.324,7.324,0,0,1-2.424,1.339,10.37,10.37,0,0,1-3.4.5Zm1.529-4a6.742,6.742,0,0,0,3.073-.655,5.063,5.063,0,0,0,2.008-1.734,4.215,4.215,0,0,0,.7-2.361v-2.72a2.816,2.816,0,0,1-.937.388c-.437.12-.93.226-1.473.317s-1.078.169-1.607.24-.994.127-1.381.183a10.809,10.809,0,0,0-2.354.543,4.045,4.045,0,0,0-1.642,1.043,2.471,2.471,0,0,0-.6,1.72,2.526,2.526,0,0,0,1.184,2.269A5.5,5.5,0,0,0,153.58,48.962Z" transform="translate(-40.079 -6.641)" fill="#137ee8"/>
    <path id="Path_1300" data-name="Path 1300" d="M185.051,22.39a3.56,3.56,0,0,1-2.4-.867,2.661,2.661,0,0,1-1.008-2.086,2.689,2.689,0,0,1,1.008-2.1,3.774,3.774,0,0,1,4.813,0,2.671,2.671,0,0,1,1,2.1,2.644,2.644,0,0,1-1,2.086,3.565,3.565,0,0,1-2.41.867Zm-2.96,26.371V25.667h5.885V48.754h-5.885Z" transform="translate(-51.281 -2.909)" fill="#137ee8"/>
    <path id="Path_1301" data-name="Path 1301" d="M204.7,38.959V52.49H198.82V29.4h5.624v3.925h.3a6.726,6.726,0,0,1,2.756-3.08,8.933,8.933,0,0,1,4.686-1.142,9.446,9.446,0,0,1,4.51,1.022,7.2,7.2,0,0,1,2.988,2.96,9.546,9.546,0,0,1,1.05,4.708v14.7h-5.885V38.628a4.938,4.938,0,0,0-1.29-3.622,4.778,4.778,0,0,0-3.566-1.311,5.842,5.842,0,0,0-2.741.62,4.541,4.541,0,0,0-1.868,1.8,5.592,5.592,0,0,0-.677,2.84Z" transform="translate(-56.354 -6.638)" fill="#137ee8"/>
    <path id="Path_1302" data-name="Path 1302" d="M238.4,49.39V18.6h12.481a14.132,14.132,0,0,1,6.441,1.325,9.277,9.277,0,0,1,3.947,3.629,10.213,10.213,0,0,1,1.339,5.236,10.256,10.256,0,0,1-1.353,5.264,9.258,9.258,0,0,1-3.982,3.615,14.458,14.458,0,0,1-6.484,1.318H242.52V34.4h7.463a8.167,8.167,0,0,0,3.672-.719,4.768,4.768,0,0,0,2.121-1.987,5.975,5.975,0,0,0,.691-2.9,5.9,5.9,0,0,0-.691-2.889,4.667,4.667,0,0,0-2.128-1.945,8.491,8.491,0,0,0-3.7-.7h-5.525V49.383H238.39Z" transform="translate(-68.037 -3.538)" fill="#137ee8"/>
    <path id="Path_1303" data-name="Path 1303" d="M285.511,52.958a10.922,10.922,0,0,1-4.264-.789,6.713,6.713,0,0,1-2.988-2.34,6.421,6.421,0,0,1-1.1-3.82,6.109,6.109,0,0,1,.782-3.235,5.81,5.81,0,0,1,2.128-2.044,11.436,11.436,0,0,1,3.044-1.163,27.732,27.732,0,0,1,3.517-.578c1.466-.141,2.65-.268,3.559-.381a5.456,5.456,0,0,0,1.994-.543,1.242,1.242,0,0,0,.627-1.149v-.092A3.268,3.268,0,0,0,291.72,34.2a4.693,4.693,0,0,0-3.136-.93,5.888,5.888,0,0,0-3.418.874,4.375,4.375,0,0,0-1.7,2.058l-5.5-.719a8.074,8.074,0,0,1,2.142-3.524,9.616,9.616,0,0,1,3.658-2.135,15.249,15.249,0,0,1,4.778-.712,16.754,16.754,0,0,1,3.594.388,10.809,10.809,0,0,1,3.27,1.283,6.849,6.849,0,0,1,2.382,2.431,7.474,7.474,0,0,1,.9,3.834V52.5h-5.659V49.329h-.2a6.8,6.8,0,0,1-1.5,1.8,7.324,7.324,0,0,1-2.424,1.339,10.369,10.369,0,0,1-3.4.5Zm1.529-4a6.742,6.742,0,0,0,3.073-.655,5.063,5.063,0,0,0,2.009-1.734,4.215,4.215,0,0,0,.7-2.361v-2.72a2.816,2.816,0,0,1-.937.388c-.437.12-.93.226-1.473.317s-1.078.169-1.607.24-.994.127-1.381.183a10.808,10.808,0,0,0-2.354.543,4.045,4.045,0,0,0-1.642,1.043,2.47,2.47,0,0,0-.6,1.72,2.526,2.526,0,0,0,1.184,2.269,5.5,5.5,0,0,0,3.023.768Z" transform="translate(-79.485 -6.641)" fill="#137ee8"/>
    <path id="Path_1304" data-name="Path 1304" d="M326.189,52.944a12.829,12.829,0,0,1-6.413-1.515,10.339,10.339,0,0,1-4.109-4.2,12.9,12.9,0,0,1-1.438-6.188,12.8,12.8,0,0,1,1.466-6.216,10.515,10.515,0,0,1,4.137-4.207,12.646,12.646,0,0,1,6.329-1.508,13.375,13.375,0,0,1,5.391,1.029,9.184,9.184,0,0,1,3.749,2.9,8.143,8.143,0,0,1,1.593,4.369h-5.624a4.778,4.778,0,0,0-5.018-3.911,5.629,5.629,0,0,0-3.171.9,5.908,5.908,0,0,0-2.121,2.565,9.7,9.7,0,0,0-.754,4,10.024,10.024,0,0,0,.747,4.052,5.9,5.9,0,0,0,2.107,2.6,5.588,5.588,0,0,0,3.192.909,5.741,5.741,0,0,0,2.333-.458,4.535,4.535,0,0,0,1.734-1.332,4.974,4.974,0,0,0,.958-2.121H336.9a8.589,8.589,0,0,1-1.557,4.334,8.946,8.946,0,0,1-3.672,2.946,13.088,13.088,0,0,1-5.462,1.057Z" transform="translate(-90.43 -6.641)" fill="#137ee8"/>
    <path id="Path_1305" data-name="Path 1305" d="M352.86,49.39V18.6h5.885V49.39Zm5.363-7.245-.014-6.568h.944l8.971-9.274H375L363.967,37.67h-1.219l-4.517,4.482Zm10.3,7.245L360.4,38.882l3.968-3.834,11.2,14.341h-7.04Z" transform="translate(-101.836 -3.538)" fill="#137ee8"/>
    <g transform="matrix(1, 0, 0, 1, 0.19, 0.2)" filter="url(#Path_1306)">
      <path id="Path_1306-2" data-name="Path 1306" d="M26.91,7.014,9.44,17.1a2.962,2.962,0,0,0-1.48,2.565V39.841a2.962,2.962,0,0,0,1.48,2.565L26.91,52.491a2.961,2.961,0,0,0,2.96,0l17.47-10.085a2.962,2.962,0,0,0,1.48-2.565V19.664a2.962,2.962,0,0,0-1.48-2.565L29.87,7.014a2.961,2.961,0,0,0-2.96,0Z" transform="translate(-0.19 -0.2)" fill="none" stroke="#137ee8" stroke-width="3"/>
    </g>
    <path id="Path_1307" data-name="Path 1307" d="M42.539,32.34c.063-.092.113-.162.162-.24a3.326,3.326,0,0,0,.507-2.593,3.461,3.461,0,0,0-2.4-2.664c-.176-.063-.226-.127-.2-.31a3.428,3.428,0,0,0-2.333-3.975.342.342,0,0,1-.247-.31,3.016,3.016,0,0,0-4.588-2.009,2.944,2.944,0,0,0-1.431,2.784v2.72H30.3v-2.7c0-.113,0-.218-.007-.331a3.033,3.033,0,0,0-6-.479.414.414,0,0,1-.31.352,3.387,3.387,0,0,0-2.326,3.474c.007.233.042.472.07.7a3.544,3.544,0,0,0-1.959,5.574,4.353,4.353,0,0,0,.331,7.978,3.518,3.518,0,0,0,4.137,4.5c.021.1.042.19.063.289a2.848,2.848,0,0,0,2.241,2.3,2.975,2.975,0,0,0,3.037-.951,3.1,3.1,0,0,0,.726-2.164v-2.8h1.727v2.756a4.967,4.967,0,0,0,.063.789,3.037,3.037,0,0,0,5.885.3c.049-.176.085-.352.127-.522a3.457,3.457,0,0,0,3.39-1.064,3.339,3.339,0,0,0,.74-3.439,4.34,4.34,0,0,0,.317-7.971Z" transform="translate(-2.761 -3.888)" fill="#137ee8"/>
  </g>
</svg>
